<?xml version="1.0" encoding="UTF-8" standalone="no"?>
<svg viewBox="0 0 315.67 315.78" xmlns="http://www.w3.org/2000/svg" class="h-10 p-2">
	<g id="Logo">
		<path fill="#FF0000" d="M157.82,157.87c87.05,0,157.85,70.8,157.85,157.8H248.6a90.86,90.86,0,0,0-90.78-90.73Z"></path>
		<path fill="#FF0000" d="M0,224.91V157.85c87,0,157.85,70.8,157.85,157.84H90.78A90.88,90.88,0,0,0,0,224.91Z"></path>
		<path fill="#FF0000" d="M157.85,157.85H90.78A90.88,90.88,0,0,0,0,67.07V0C87,0,157.85,70.8,157.85,157.85Z"></path>
		<path fill="#FF0000" d="M315.64,157.85H248.58a90.87,90.87,0,0,0-90.73-90.78V0C244.84,0,315.64,70.8,315.64,157.85Z"></path>
	</g>
</svg>