<?xml version="1.0" encoding="utf-8"?>
<!-- Generator: Adobe Illustrator 22.1.0, SVG Export Plug-In . SVG Version: 6.00 Build 0)  -->
<svg version="1.1" id="Layer_1" xmlns="http://www.w3.org/2000/svg" xmlns:xlink="http://www.w3.org/1999/xlink" x="0px" y="0px"
	 viewBox="0 0 501.6 501.6" style="enable-background:new 0 0 501.6 501.6;" xml:space="preserve">
<style type="text/css">
	.st0{fill:#E52428;}
</style>
<g>
	<path class="st0" d="M81.3,111.7h70.5V38.2c0-21-17-38-38-38H43.3v73.5C43.3,94.7,60.3,111.7,81.3,111.7z"/>
	<path class="st0" d="M455.3,182.8c0-1,0-2,0-2.9c-0.4-25.2-5.9-49.2-15.6-71C411.4,44.8,347.2,0.1,272.7,0.1H194v17.8v91H268h23.2
		c23.2,4,42.4,19.9,51,41.1c3.2,7.9,5,16.5,5,25.6c0,1.5,0,2.9-0.1,4.3H347v2.4v24.6h-7.3h-120h-25.6v55.4v15.3
		c0,14,7.6,26.2,18.8,32.8c5.6,3.3,12.2,5.2,19.2,5.2H287h59.3c0.5,3.2,0.7,6.4,0.7,9.7c0,9.5-2,18.5-5.5,26.7
		c-9.5,21.8-30.2,37.5-54.9,40.1H272h-44.8h-14.4c-32.2-3.4-58-29.1-60.8-61.4v-10.8v-0.7V181.8v-28.9H92.4H43.3v239.2v108.8H152
		h104.8c5.2,0.5,10.5,0.7,15.9,0.7c5.4,0,10.7-0.2,15.9-0.7c20.7-1.8,40.3-7,58.5-15.1c41.5-18.5,74.8-52,93.1-93.7
		c9.8-22.4,15.3-47.2,15.3-73.2c0-1.1,0-2.2,0-3.3h0.1"/>
</g>
</svg>
